<?xml version="1.0" standalone="no"?>
<!DOCTYPE svg PUBLIC "-//W3C//DTD SVG 20010904//EN"
 "http://www.w3.org/TR/2001/REC-SVG-20010904/DTD/svg10.dtd">
<svg version="1.0" xmlns="http://www.w3.org/2000/svg"
 width="400.000000pt" height="282.000000pt" viewBox="0 0 400.000000 282.000000"
 preserveAspectRatio="xMidYMid meet">

<g transform="translate(0.000000,282.000000) scale(0.100000,-0.100000)"
fill="#000000" stroke="none">
<path d="M2220 2643 c-25 -9 -45 -16 -46 -17 0 0 4 -57 10 -126 l11 -125 42 2
c55 2 88 19 73 38 -9 10 -18 11 -41 3 -36 -12 -36 -12 -41 32 -3 32 0 36 30
45 44 13 40 41 -6 37 -31 -3 -32 -3 -32 37 0 38 2 40 36 47 24 4 34 11 32 22
-4 22 -17 23 -68 5z"/>
<path d="M1990 2485 c-19 -47 -37 -85 -40 -85 -3 0 -25 30 -48 66 -24 37 -47
62 -52 58 -10 -12 -63 -254 -56 -261 18 -18 35 14 51 96 10 50 19 91 21 91 2
0 22 -27 44 -60 23 -33 45 -58 49 -56 4 3 20 37 35 75 15 39 31 73 35 76 5 2
23 -29 42 -70 23 -51 40 -74 52 -75 9 0 17 4 17 9 0 15 -101 221 -109 221 -3
0 -22 -38 -41 -85z"/>
<path d="M1593 2469 c-61 -39 -94 -121 -73 -184 23 -69 92 -94 166 -59 79 38
112 170 58 233 -22 27 -33 31 -72 31 -30 0 -59 -8 -79 -21z m117 -29 c15 -15
20 -33 20 -70 0 -43 -5 -55 -32 -85 -59 -63 -126 -53 -144 21 -11 42 24 113
66 135 44 24 65 24 90 -1z"/>
<path d="M1418 2421 c-114 -72 -147 -186 -68 -238 36 -25 66 -28 123 -12 28 7
37 15 35 27 -3 9 -11 15 -19 13 -36 -11 -99 -12 -118 -2 -15 9 -21 21 -21 48
0 48 31 96 85 130 48 30 49 31 37 50 -6 10 -20 6 -54 -16z"/>
<path d="M1157 2323 c2 -27 7 -84 11 -128 8 -90 12 -94 81 -75 26 7 41 17 41
27 0 13 -7 14 -39 9 l-38 -6 -7 46 c-3 26 -6 68 -6 95 0 59 -7 79 -30 79 -14
0 -16 -7 -13 -47z"/>
<path d="M1011 2332 l-45 -17 3 -55 c2 -30 6 -86 10 -125 l6 -70 42 2 c48 2
87 19 77 35 -4 6 -22 8 -44 4 -37 -6 -38 -5 -42 30 -4 37 11 54 47 54 10 0 15
6 13 18 -4 18 -9 19 -45 7 -22 -6 -23 -3 -23 39 0 44 1 45 36 52 24 4 34 11
32 22 -4 22 -17 23 -67 4z"/>
<path d="M2667 2344 c-3 -4 -17 -8 -29 -10 -13 -3 -48 -9 -78 -14 -30 -5 -88
-15 -129 -20 -41 -6 -82 -15 -92 -20 -10 -6 -38 -10 -63 -10 -39 0 -46 -3 -46
-20 0 -11 -7 -20 -15 -20 -8 0 -15 6 -15 14 0 10 -7 13 -22 10 -13 -3 -44 -8
-70 -11 -53 -6 -56 -13 -41 -84 l7 -34 7 35 c6 35 6 35 9 -10 1 -25 6 -56 10
-70 6 -20 8 -15 9 25 1 32 4 45 10 36 6 -8 16 -11 31 -6 22 7 23 5 17 -36 l-5
-44 11 38 c6 20 14 37 19 37 4 0 8 18 8 40 0 28 4 40 14 40 14 0 35 -47 37
-84 1 -15 3 -13 9 9 l8 30 1 -30 c1 -16 6 -37 11 -45 7 -12 10 -8 10 15 1 27
2 28 10 9 12 -31 30 -39 30 -15 0 12 5 21 10 21 6 0 10 -4 10 -10 0 -5 6 -7
14 -4 12 5 14 -5 11 -48 -2 -29 -2 -46 1 -38 18 48 38 83 42 72 2 -6 8 -10 13
-7 5 4 7 -9 4 -27 -3 -23 1 -16 15 22 10 30 22 77 26 104 l7 49 27 -74 c15
-41 34 -88 43 -105 25 -49 60 -203 53 -238 -3 -17 -3 -26 2 -21 4 6 13 10 21
10 8 0 16 7 18 15 4 13 3 13 -7 0 -9 -13 -10 -12 -7 5 2 11 9 19 18 17 8 -2
11 0 7 4 -11 11 11 34 33 34 12 0 24 -17 39 -57 30 -80 33 -139 9 -192 -10
-24 -16 -47 -13 -52 3 -5 3 -9 0 -9 -3 0 -21 31 -40 69 -20 38 -47 86 -62 107
l-27 39 8 -35 c4 -19 7 -46 6 -60 -1 -18 2 -21 8 -11 7 10 11 6 15 -17 4 -16
16 -47 26 -67 10 -20 16 -44 13 -52 -5 -12 -3 -14 8 -8 12 8 12 6 0 -8 -15
-19 -26 -23 -15 -5 4 7 3 8 -4 4 -7 -4 -12 -13 -12 -20 0 -37 -89 -90 -91 -53
0 6 -9 -22 -19 -63 -31 -117 -90 -227 -155 -289 -31 -29 -55 -54 -53 -55 11
-8 146 -26 196 -26 58 0 61 -1 66 -27 3 -16 7 -49 8 -75 1 -45 3 -47 37 -57
35 -10 35 -11 4 -6 -31 4 -33 3 -33 -28 -1 -30 -1 -31 -15 -13 -13 17 -15 18
-15 3 0 -15 5 -18 28 -16 4 0 10 -10 14 -23 8 -30 10 -108 2 -108 -3 0 -31 7
-61 16 -30 9 -56 14 -59 11 -2 -2 26 -12 63 -22 91 -24 214 -64 235 -75 28
-16 33 -12 13 10 -10 11 -25 20 -34 20 -13 1 -13 2 2 11 14 8 23 7 38 -7 26
-24 54 -27 69 -9 7 8 18 15 25 15 6 0 27 8 46 17 21 10 61 18 104 18 62 2 86
7 160 36 11 4 38 13 60 19 22 7 68 25 103 41 34 16 67 29 72 29 6 0 10 11 10
24 0 13 7 27 16 30 11 4 15 14 12 31 -3 16 1 30 13 41 11 10 19 25 19 35 0 10
7 25 16 34 24 23 4 65 -31 65 -15 0 -25 6 -25 14 0 8 -6 17 -12 19 -7 3 2 10
20 17 17 7 32 15 32 20 0 11 -21 27 -45 34 -11 3 -5 4 13 2 45 -4 40 8 -10 22
-24 6 -58 20 -76 32 -27 17 -31 23 -23 39 8 14 6 23 -9 36 -26 24 -25 33 5 47
16 7 24 18 22 32 -2 18 5 22 48 27 28 3 42 7 33 7 -20 2 -32 18 -19 26 5 3 20
-3 34 -14 29 -23 81 -45 72 -30 -3 6 -13 10 -21 10 -20 0 -66 47 -97 101 -32
55 -34 69 -7 69 19 0 22 5 24 40 1 8 11 16 24 18 12 2 22 6 22 10 1 23 18 32
42 23 20 -7 28 -7 31 3 6 15 -11 36 -29 36 -7 0 -14 10 -16 22 -2 13 -11 24
-23 26 -11 2 -33 17 -48 32 -29 30 -57 30 -57 1 0 -14 -2 -14 -10 -1 -6 10 -6
16 0 18 17 6 11 19 -11 25 -16 4 -23 0 -27 -16 -6 -20 -7 -19 -12 7 -3 19 -12
30 -25 32 -21 3 -146 -17 -225 -36 -77 -19 -137 -23 -144 -11 -7 10 4 17 59
37 18 6 18 8 -7 17 -24 9 -28 17 -28 48 0 21 -4 40 -9 44 -5 3 -7 20 -4 39 3
19 1 36 -6 40 -18 11 -13 97 6 119 16 17 16 20 2 30 -8 7 -18 20 -22 30 -4 9
-17 21 -29 26 -13 5 -32 23 -43 40 -11 17 -27 31 -35 31 -9 0 -24 6 -35 13
-11 7 -44 19 -73 25 -62 14 -66 14 -75 6z m-287 -214 c0 -5 -5 -10 -11 -10 -5
0 -7 5 -4 10 3 6 8 10 11 10 2 0 4 -4 4 -10z m978 -395 c-3 -3 -9 2 -12 12 -6
14 -5 15 5 6 7 -7 10 -15 7 -18z m42 -46 c16 -30 8 -31 -13 -3 -10 13 -13 24
-8 24 6 0 15 -9 21 -21z m-70 -115 c0 -2 -9 0 -20 6 -11 6 -20 13 -20 16 0 2
9 0 20 -6 11 -6 20 -13 20 -16z m-24 -184 c3 -52 2 -106 -3 -119 -7 -18 -9 -6
-9 50 1 41 -2 108 -6 149 -6 56 -5 68 3 45 5 -16 12 -73 15 -125z m31 80 c-7
-17 -13 -26 -15 -21 -3 10 15 51 22 51 3 0 -1 -14 -7 -30z m3 -50 c0 -5 -4
-10 -10 -10 -5 0 -10 5 -10 10 0 6 5 10 10 10 6 0 10 -4 10 -10z m0 -72 c0
-16 -3 -19 -11 -11 -6 6 -8 16 -5 22 11 17 16 13 16 -11z m-13 -85 c-3 -10 -5
-4 -5 12 0 17 2 24 5 18 2 -7 2 -21 0 -30z m136 -115 c4 -14 -1 -18 -19 -18
-21 0 -32 18 -19 32 11 11 34 3 38 -14z m47 -20 c0 -13 -23 -5 -28 10 -2 7 2
10 12 6 9 -3 16 -11 16 -16z m-228 -61 c3 -28 0 -33 -17 -33 -14 0 -20 7 -20
23 0 29 3 29 15 1 8 -21 9 -20 9 10 1 41 8 41 13 -1z m-580 -6 c-4 -10 -7 -11
-10 -3 -5 17 -32 15 -32 -2 0 -8 8 -17 18 -19 15 -4 15 -5 0 -6 -9 0 -20 4
-23 9 -12 19 4 40 29 38 16 -2 22 -7 18 -17z m265 -1 c3 -11 9 -18 13 -15 5 3
11 2 14 -3 6 -10 -49 -10 -59 0 -10 10 2 38 16 38 6 0 13 -9 16 -20z m241 -5
c-3 -3 -9 2 -12 12 -6 14 -5 15 5 6 7 -7 10 -15 7 -18z m14 -17 c-8 -8 -9 -4
-5 13 4 13 8 18 11 10 2 -7 -1 -18 -6 -23z m-485 16 c-3 -3 -12 -4 -19 -1 -8
3 -5 6 6 6 11 1 17 -2 13 -5z m32 -10 c4 3 13 0 21 -5 11 -7 9 -8 -9 -6 -14 2
-26 9 -27 16 -1 6 0 7 3 1 2 -5 8 -8 12 -6z m739 -79 c11 -28 11 -28 -3 -11
-8 11 -15 24 -15 30 0 5 -8 19 -17 30 l-17 21 20 -20 c11 -11 26 -33 32 -50z
m-801 -121 c-3 -3 -12 -4 -19 -1 -8 3 -5 6 6 6 11 1 17 -2 13 -5z m39 -38 c82
-20 141 -39 162 -52 3 -1 -55 -114 -63 -123 -2 -1 -8 0 -14 3 -6 4 -1 26 14
59 14 28 21 55 16 60 -9 9 -78 27 -178 47 -35 7 -63 17 -63 21 0 13 15 11 126
-15z m266 5 c16 -6 13 -15 -25 -81 -31 -56 -48 -76 -66 -78 -24 -4 -23 -3 12
60 23 40 44 65 59 69 21 6 20 7 -7 9 -16 0 -70 9 -120 19 l-90 18 110 -5 c61
-3 118 -8 127 -11z"/>
<path d="M2940 1055 c0 -8 5 -15 10 -15 6 0 10 7 10 15 0 8 -4 15 -10 15 -5 0
-10 -7 -10 -15z"/>
<path d="M880 2213 c-12 -49 -26 -94 -30 -101 -4 -9 -20 4 -49 42 -23 31 -43
56 -45 56 -2 0 -11 -21 -21 -47 -10 -27 -25 -63 -33 -82 l-14 -35 -34 79 c-39
89 -49 104 -64 89 -11 -11 79 -225 97 -231 6 -2 25 32 43 77 18 44 34 80 36
80 2 0 22 -25 45 -55 23 -31 46 -52 50 -48 13 13 77 237 72 250 -13 33 -32 7
-53 -74z"/>
<path d="M2031 2233 c0 -7 -10 -13 -21 -13 -16 0 -20 -7 -21 -37 l-2 -38 -7
35 c-6 30 -8 25 -9 -30 -1 -36 -4 -76 -6 -90 -5 -22 -4 -22 4 -5 5 11 10 32
10 47 1 21 7 29 26 34 24 6 35 24 15 24 -5 0 -10 5 -10 11 0 5 5 7 10 4 13 -8
23 18 17 47 -2 13 -5 17 -6 11z"/>
<path d="M1876 2188 c-11 -40 -22 -117 -15 -111 13 14 38 123 28 123 -5 0 -11
-6 -13 -12z"/>
<path d="M1740 2168 c-47 -11 -104 -22 -128 -25 -34 -4 -42 -8 -37 -22 3 -9
12 -43 20 -76 16 -61 24 -79 26 -54 0 8 7 -2 14 -21 14 -35 15 -33 20 30 4 57
4 60 16 60 5 0 7 -5 4 -11 -4 -6 2 -5 13 2 12 7 23 24 27 36 5 20 8 22 26 12
12 -6 19 -7 15 -1 -3 5 1 13 9 16 16 6 16 2 -7 -88 -17 -67 -3 -48 31 45 37
98 53 118 21 24 -11 -32 -18 -60 -16 -62 4 -5 41 89 52 132 7 30 7 30 -106 3z"/>
<path d="M2007 2123 c-4 -3 -7 -13 -7 -22 1 -13 3 -13 11 2 11 19 8 33 -4 20z"/>
<path d="M2071 2104 c0 -11 3 -14 6 -6 3 7 2 16 -1 19 -3 4 -6 -2 -5 -13z"/>
<path d="M1458 2103 c-19 -5 -22 -37 -8 -83 l7 -25 6 25 c8 35 17 90 14 89 -1
-1 -10 -3 -19 -6z"/>
<path d="M2191 2084 c0 -11 3 -14 6 -6 3 7 2 16 -1 19 -3 4 -6 -2 -5 -13z"/>
<path d="M2262 2080 c0 -14 2 -19 5 -12 2 6 2 18 0 25 -3 6 -5 1 -5 -13z"/>
<path d="M1255 2053 c-79 -10 -78 -9 -71 -68 3 -29 10 -64 15 -77 9 -22 10
-22 11 7 0 17 7 39 15 49 15 20 15 20 16 0 2 -24 2 -24 -6 -59 -6 -29 -6 -29
7 -7 8 12 18 19 23 15 4 -4 5 0 2 10 -4 10 0 34 8 54 8 19 12 40 8 46 -3 5 -1
7 4 4 6 -4 13 2 16 13 3 12 0 19 -6 19 -7 -1 -25 -4 -42 -6z"/>
<path d="M1147 2024 c-4 -4 -21 -8 -39 -10 -59 -5 -113 -15 -133 -24 -23 -11
-101 -27 -195 -41 -36 -5 -74 -13 -85 -18 -37 -15 -123 -41 -136 -41 -25 -1
-59 -38 -59 -63 0 -15 -9 -31 -25 -41 -23 -15 -25 -23 -25 -85 0 -53 4 -71 18
-84 10 -10 24 -17 30 -17 7 0 12 -9 12 -20 0 -12 7 -20 16 -20 38 0 -15 -126
-66 -158 -11 -7 -20 -20 -20 -30 0 -16 8 -17 63 -14 66 4 123 -11 111 -29 -4
-8 -9 -8 -17 0 -6 6 -18 11 -27 10 -10 0 -11 -2 -2 -6 6 -2 12 -11 12 -19 0
-11 4 -12 18 -5 22 12 42 -3 42 -30 0 -10 5 -21 10 -24 19 -12 10 -35 -22 -56
-27 -16 -45 -19 -95 -16 -58 4 -83 -6 -49 -19 8 -3 16 -14 19 -24 5 -19 74
-60 102 -60 19 0 19 -19 0 -46 -8 -12 -11 -24 -8 -28 3 -3 5 -28 4 -55 -1 -28
6 -69 15 -92 14 -33 15 -46 6 -60 -18 -28 -15 -32 21 -25 20 4 27 3 18 -3 -8
-5 -10 -14 -5 -22 4 -8 7 -53 6 -101 -2 -71 1 -96 20 -138 l22 -51 41 6 c22 4
54 10 70 15 43 12 165 21 140 10 -14 -6 -15 -9 -5 -10 12 0 10 -4 -5 -17 l-20
-16 20 8 c11 5 30 9 42 9 11 1 19 4 17 8 -6 9 26 15 53 10 13 -2 20 -9 16 -15
-3 -6 -1 -7 5 -3 20 12 13 26 -13 26 -14 0 -25 5 -25 11 0 7 12 10 29 7 17 -2
28 -1 25 4 -3 4 -14 8 -24 8 -10 0 -20 3 -22 8 -1 4 -16 14 -32 22 -16 8 -31
20 -33 26 -2 7 28 24 69 40 40 15 123 53 185 85 70 35 115 53 121 47 10 -10 6
31 -5 62 -17 46 -10 59 37 67 l45 7 -35 7 c-19 4 -37 6 -39 3 -2 -2 2 -4 10
-5 8 -1 3 -4 -11 -8 -19 -5 -26 -14 -28 -40 -2 -19 1 -38 7 -44 15 -15 14 -24
-3 -30 -11 -4 -14 10 -15 69 -1 42 -2 78 -2 82 -4 29 3 42 24 42 13 0 29 -6
36 -13 11 -9 13 -9 7 1 -4 7 -2 12 6 13 7 0 22 2 33 4 11 3 51 6 89 7 43 2 70
8 73 16 3 6 9 12 15 12 5 0 6 -4 3 -10 -7 -11 6 -13 29 -4 9 3 14 10 11 14 -3
5 0 12 6 16 7 4 9 3 6 -3 -4 -6 6 -19 21 -29 20 -13 24 -13 15 -2 -11 12 -9
18 6 32 19 17 19 17 14 -6 -5 -23 -5 -23 18 3 32 36 84 60 98 46 8 -8 11 -6
11 7 0 9 4 14 10 11 5 -3 9 12 8 39 0 24 3 50 7 56 6 9 4 11 -5 5 -8 -5 -11
-3 -8 6 3 8 11 13 17 11 7 -1 10 2 6 8 -3 5 -8 10 -10 10 -6 0 -79 -105 -78
-112 2 -3 -5 -12 -15 -20 -15 -12 -16 -11 -3 5 19 24 11 22 -55 -18 -32 -19
-89 -45 -126 -57 l-68 -22 -62 30 c-34 16 -66 28 -71 26 -4 -1 -6 1 -3 6 3 5
-7 15 -22 23 -35 18 -112 91 -112 106 0 7 -11 33 -25 60 -22 41 -30 47 -53 45
-19 -2 -37 5 -56 23 -16 14 -35 24 -43 21 -8 -3 -12 -2 -9 3 3 5 -1 12 -10 15
-10 4 -13 2 -8 -7 4 -6 -1 -5 -11 5 -27 25 -10 36 55 33 33 -2 60 -1 60 1 0 7
-76 74 -85 74 -5 0 6 -13 25 -30 l35 -29 -32 -1 c-17 0 -34 6 -36 13 -4 10 -6
10 -6 0 -1 -7 -5 -13 -10 -13 -6 0 -5 14 0 35 6 19 7 40 4 45 -4 6 6 7 26 3
29 -6 31 -5 20 15 -6 11 -11 31 -11 44 -1 13 -8 34 -16 48 -9 15 -13 17 -8 5
4 -11 8 -36 8 -57 1 -20 4 -34 9 -31 4 2 7 -1 7 -7 0 -7 -6 -10 -12 -7 -7 2
-14 19 -15 38 -1 19 -5 69 -8 112 -7 87 0 133 46 281 20 64 34 95 39 86 6 -10
11 -8 19 9 12 21 10 27 -2 15z m-161 -380 c5 -19 9 -22 15 -12 6 8 9 -6 9 -37
0 -39 -4 -53 -20 -63 -18 -11 -20 -10 -20 17 0 16 -3 37 -7 47 -4 12 -2 15 8
12 9 -3 13 -15 11 -32 -3 -19 0 -26 7 -22 18 11 13 45 -9 58 -11 7 -20 23 -20
35 0 31 18 29 26 -3z m-56 -119 c7 -25 15 -45 18 -45 2 0 15 11 28 25 13 14
28 25 34 25 14 0 3 -46 -21 -88 -11 -18 -15 -30 -9 -27 6 3 7 -1 4 -9 -3 -9
-10 -13 -15 -10 -16 9 -56 97 -63 137 -10 52 9 47 24 -8z m30 -30 c0 -5 -5 -3
-10 5 -5 8 -10 20 -10 25 0 6 5 3 10 -5 5 -8 10 -19 10 -25z m881 -348 c-10
-9 -11 -8 -5 6 3 10 9 15 12 12 3 -3 0 -11 -7 -18z m-87 -85 c3 -5 -1 -9 -9
-9 -8 0 -12 4 -9 9 3 4 7 8 9 8 2 0 6 -4 9 -8z m-494 -142 c-8 -5 -19 -10 -25
-10 -5 0 -3 5 5 10 8 5 20 10 25 10 6 0 3 -5 -5 -10z m-122 -110 c-7 -10 -14
-17 -17 -15 -4 4 18 35 25 35 2 0 -1 -9 -8 -20z m-117 -17 c-12 -20 -14 -14
-5 12 4 9 9 14 11 11 3 -2 0 -13 -6 -23z m159 -8 c-7 -8 -17 -15 -23 -15 -6 0
-2 7 9 15 25 19 30 19 14 0z m130 0 c0 -10 -33 -31 -87 -56 -131 -61 -266
-119 -269 -116 -1 1 3 9 9 18 15 19 70 48 155 79 35 13 91 38 125 56 73 39 67
38 67 19z m-316 -258 c8 9 37 -18 30 -28 -3 -5 -15 -9 -27 -8 -21 0 -21 1 -2
8 16 6 14 9 -15 14 -46 10 -73 34 -57 53 10 11 17 8 39 -16 14 -15 29 -26 32
-23z m-124 -17 c-8 -5 -22 -10 -30 -10 -13 0 -13 1 0 10 8 5 22 10 30 10 13 0
13 -1 0 -10z"/>
<path d="M2645 1784 c-15 -24 -16 -28 -1 -40 9 -8 11 -9 6 -2 -13 16 -13 31 0
23 6 -4 10 -3 9 2 -4 23 3 33 24 33 13 0 24 -6 25 -12 7 -74 11 -100 17 -106
8 -8 -2 105 -11 119 -11 19 -52 8 -69 -17z"/>
<path d="M1315 1769 c-43 -12 -99 -61 -129 -113 -23 -39 -25 -48 -14 -71 15
-34 29 -28 53 23 11 23 24 41 28 42 5 0 6 -4 2 -10 -3 -5 2 -17 12 -27 10 -10
26 -31 36 -46 9 -15 22 -27 27 -27 6 0 3 12 -6 26 -15 21 -15 27 -4 34 8 5 18
6 22 4 4 -3 8 1 8 9 0 23 29 42 42 29 14 -14 44 -16 52 -3 3 4 -7 6 -22 5 -25
-4 -25 -3 6 11 52 24 138 -1 118 -34 -4 -5 -2 -12 4 -16 14 -9 12 52 -4 98
-10 26 -10 35 -2 28 7 -6 17 -6 26 -1 8 5 19 6 25 4 5 -3 1 2 -10 10 -10 9
-35 21 -55 26 -42 12 -174 12 -215 -1z m121 -43 c10 -8 16 -18 11 -22 -4 -4
-7 -2 -7 4 0 7 -12 12 -26 12 -14 0 -23 4 -19 10 8 14 18 13 41 -4z"/>
<path d="M2678 1748 c9 -9 8 -16 -5 -30 -16 -18 -16 -18 0 -12 9 3 17 10 17
16 0 5 6 6 13 2 6 -4 3 2 -7 14 -11 12 -22 22 -25 22 -3 0 0 -5 7 -12z"/>
<path d="M2345 1723 c-48 -3 -142 -21 -170 -32 -11 -5 -30 -13 -43 -17 -14 -6
23 -8 100 -6 97 3 138 -1 193 -15 39 -11 77 -17 84 -15 14 5 -50 52 -72 52 -7
0 -22 8 -33 18 -13 11 -32 16 -59 15z m95 -49 c0 -2 -7 -4 -15 -4 -8 0 -15 4
-15 10 0 5 7 7 15 4 8 -4 15 -8 15 -10z"/>
<path d="M2604 1595 c-9 -14 -14 -28 -11 -32 4 -3 10 3 14 13 4 10 14 24 22
31 11 8 12 12 4 13 -7 0 -20 -11 -29 -25z"/>
<path d="M2635 1570 c2 -4 -11 -13 -30 -20 -31 -12 -55 -53 -40 -68 3 -3 5 2
5 11 0 21 47 57 76 57 15 0 22 5 18 13 -3 8 -11 14 -19 14 -8 0 -12 -3 -10 -7z"/>
<path d="M585 1263 c-22 -14 -33 -23 -24 -20 9 3 21 1 27 -5 6 -6 23 -8 38 -4
16 4 23 10 17 14 -6 4 -12 15 -14 24 -4 15 -9 14 -44 -9z"/>
<path d="M1947 1202 c-20 -22 -22 -46 -4 -61 20 -16 65 33 51 56 -15 25 -28
26 -47 5z m40 -7 c6 -18 -25 -58 -38 -49 -13 8 -11 38 3 52 16 16 27 15 35 -3z"/>
<path d="M1957 1183 c-4 -3 -7 -11 -7 -17 0 -6 5 -5 12 2 6 6 9 14 7 17 -3 3
-9 2 -12 -2z"/>
<path d="M2061 1138 c2 -41 16 -101 18 -74 1 20 1 20 17 0 8 -10 12 -13 8 -5
-5 11 -3 13 10 8 10 -4 26 -2 36 3 13 7 20 6 23 -3 4 -9 6 -9 6 0 1 7 -24 28
-54 48 -31 19 -53 40 -50 45 3 6 1 10 -4 10 -6 0 -10 -15 -10 -32z m65 -50
c-10 -6 -22 -6 -26 -2 -5 5 3 10 18 11 22 1 24 0 8 -9z"/>
<path d="M1513 963 c-41 -5 -43 -18 -3 -18 17 0 30 3 30 8 0 4 5 7 11 7 5 0 7
-4 4 -10 -3 -6 1 -7 10 -3 13 5 14 7 3 14 -7 5 -15 8 -18 7 -3 -1 -20 -3 -37
-5z"/>
<path d="M1423 943 c9 -2 23 -2 30 0 6 3 -1 5 -18 5 -16 0 -22 -2 -12 -5z"/>
<path d="M2405 920 c-9 -15 4 -30 23 -29 15 1 15 2 0 6 -21 5 -23 19 -5 26 9
4 9 6 0 6 -6 1 -15 -3 -18 -9z"/>
<path d="M1330 910 c0 -13 11 -13 30 0 12 8 11 10 -7 10 -13 0 -23 -4 -23 -10z"/>
<path d="M1410 910 l-25 -8 25 -1 c14 0 32 4 40 9 13 9 13 10 0 9 -8 -1 -26
-5 -40 -9z"/>
<path d="M1505 911 c-16 -3 -25 -9 -20 -12 6 -4 26 -1 45 7 37 13 25 16 -25 5z"/>
<path d="M1490 882 c-32 -4 -33 -5 -10 -11 14 -4 30 -17 36 -30 7 -12 14 -18
18 -13 3 5 -1 16 -10 23 -14 12 -14 14 2 26 10 7 14 12 8 11 -5 0 -25 -3 -44
-6z"/>
<path d="M1406 859 c2 -4 -1 -11 -7 -15 -6 -3 -15 -1 -19 6 -5 9 -9 9 -14 1
-4 -6 -1 -11 6 -12 7 0 4 -4 -7 -9 -11 -5 -14 -9 -6 -9 13 -1 81 36 81 44 0 2
-9 3 -19 2 -11 0 -18 -4 -15 -8z"/>
<path d="M1163 643 c-156 -79 -155 -78 -68 -118 22 -10 34 -20 27 -23 -14 -4
-42 -54 -42 -74 1 -7 10 4 20 24 11 20 23 39 28 41 4 3 43 8 87 12 44 4 118
10 165 15 l85 8 -76 -2 -76 -1 -1 93 c0 52 -2 95 -4 95 -2 1 -67 -30 -145 -70z"/>
<path d="M1953 681 c-40 -10 -79 -35 -96 -62 -33 -54 -200 -129 -289 -129 -15
0 -28 -4 -28 -8 0 -5 25 -29 55 -56 32 -27 69 -72 87 -106 18 -33 38 -60 44
-60 5 0 26 11 45 25 22 17 42 24 56 20 12 -3 25 -1 28 5 3 5 17 10 31 10 24 0
105 22 149 40 11 5 44 16 73 26 53 18 64 30 37 40 -12 5 -12 9 1 29 13 20 13
24 -1 35 -24 20 -18 27 37 46 l52 17 -45 22 c-24 13 -54 37 -67 54 -13 18 -28
29 -34 25 -6 -4 -8 -3 -4 4 3 6 3 13 -2 16 -17 10 -98 14 -129 7z m85 -86 c-3
-3 -9 2 -12 12 -6 14 -5 15 5 6 7 -7 10 -15 7 -18z m-76 -20 c3 -14 1 -25 -3
-25 -5 0 -9 4 -9 9 0 5 -3 16 -6 25 -3 9 -2 16 4 16 5 0 12 -11 14 -25z m197
-19 c9 -11 7 -13 -13 -13 -17 0 -23 4 -19 13 3 8 9 14 13 14 4 0 13 -6 19 -14z
m-322 -31 c-4 -8 -2 -17 3 -20 16 -10 11 -51 -7 -67 -14 -12 -104 -48 -120
-48 -2 0 -3 20 -3 45 0 35 4 47 18 51 9 3 37 17 62 30 53 28 54 28 47 9z m133
5 c0 -5 -4 -10 -10 -10 -5 0 -10 5 -10 10 0 6 5 10 10 10 6 0 10 -4 10 -10z
m-117 -107 c-7 -3 -13 -11 -13 -18 0 -20 -17 -28 -36 -17 -11 6 -13 11 -5 16
6 4 11 2 11 -5 0 -6 10 0 21 15 12 15 24 24 28 20 3 -4 0 -9 -6 -11z m-108
-143 c-3 -5 -11 -10 -16 -10 -6 0 -7 5 -4 10 3 6 11 10 16 10 6 0 7 -4 4 -10z"/>
<path d="M1783 494 c-18 -8 -33 -20 -33 -27 0 -14 39 -41 48 -33 3 3 -1 6 -9
6 -8 0 1 9 18 20 22 13 31 25 27 35 -7 18 -9 18 -51 -1z m37 -8 c0 -3 -4 -8
-10 -11 -5 -3 -10 -1 -10 4 0 6 5 11 10 11 6 0 10 -2 10 -4z"/>
<path d="M2418 659 c-32 -16 -58 -32 -58 -34 0 -5 119 52 129 61 13 12 -22 -1
-71 -27z"/>
<path d="M2290 590 c-25 -16 -42 -30 -37 -30 8 0 87 51 87 56 0 7 -4 5 -50
-26z"/>
<path d="M2640 570 c-35 -7 -35 -7 -5 -9 17 0 37 4 45 9 17 11 11 11 -40 0z"/>
<path d="M1470 526 c0 -3 15 -15 33 -27 23 -17 28 -18 18 -6 -14 18 -51 42
-51 33z"/>
<path d="M2394 519 c-3 -6 -19 -16 -35 -23 -25 -10 -27 -15 -16 -29 18 -24 59
-1 64 36 4 28 -1 35 -13 16z"/>
<path d="M878 473 c6 -2 18 -2 25 0 6 3 1 5 -13 5 -14 0 -19 -2 -12 -5z"/>
<path d="M2268 473 c-30 -5 -31 -7 -18 -38 8 -19 9 -19 9 3 1 24 16 30 24 10
3 -8 6 -6 6 5 1 9 6 17 12 17 5 0 7 -4 4 -10 -3 -5 1 -10 10 -10 20 0 14 25
-6 26 -8 1 -26 -1 -41 -3z"/>
<path d="M2166 454 c-6 -16 9 -44 24 -44 4 0 5 11 2 25 -2 15 0 25 7 25 6 0
11 -9 11 -19 0 -11 5 -23 10 -26 6 -4 10 7 10 24 0 27 -3 31 -29 31 -17 0 -31
-6 -35 -16z"/>
<path d="M1540 336 c0 -2 8 -10 18 -17 15 -13 16 -12 3 4 -13 16 -21 21 -21
13z"/>
<path d="M1610 273 c0 -5 9 -18 20 -28 11 -10 20 -14 20 -8 0 5 -9 18 -20 28
-11 10 -20 14 -20 8z"/>
<path d="M1215 100 c-3 -6 1 -7 9 -4 18 7 21 14 7 14 -6 0 -13 -4 -16 -10z"/>
</g>
</svg>
